<mxfile host="app.diagrams.net" modified="2024-05-22T22:20:24.551Z" agent="Mozilla/5.0 (Windows NT 10.0; Win64; x64) AppleWebKit/537.36 (KHTML, like Gecko) Chrome/125.0.0.0 Safari/537.36" version="24.4.6" etag="FgCgpsa37IG3AnJHAABN" type="github">
  <diagram name="PÃ¡gina-1" id="BaLXe2NrCptXkUyxPi4X">
    <mxGraphModel>
      <root>
        <mxCell id="0" />
        <mxCell id="1" parent="0" />
      </root>
    </mxGraphModel>
  </diagram>
</mxfile>
